<svg width="14" height="16" viewBox="0 0 14 16" fill="none" xmlns="http://www.w3.org/2000/svg">
<path d="M1.4 16C1.015 16 0.685417 15.8576 0.41125 15.5727C0.137083 15.2879 0 14.9455 0 14.5455C0 14.1455 0.137083 13.803 0.41125 13.5182C0.685417 13.2333 1.015 13.0909 1.4 13.0909H12.6C12.985 13.0909 13.3146 13.2333 13.5888 13.5182C13.8629 13.803 14 14.1455 14 14.5455C14 14.9455 13.8629 15.2879 13.5888 15.5727C13.3146 15.8576 12.985 16 12.6 16H1.4ZM2.8 10.1818H3.78L9.24 4.52727L8.2425 3.49091L2.8 9.16364V10.1818ZM1.4 10.9091V8.85455C1.4 8.75758 1.4175 8.66364 1.4525 8.57273C1.4875 8.48182 1.54 8.4 1.61 8.32727L9.24 0.418182C9.36833 0.284848 9.51708 0.181818 9.68625 0.109091C9.85542 0.0363636 10.0333 0 10.22 0C10.4067 0 10.5875 0.0363636 10.7625 0.109091C10.9375 0.181818 11.095 0.290909 11.235 0.436364L12.1975 1.45455C12.3375 1.58788 12.4396 1.74545 12.5038 1.92727C12.5679 2.10909 12.6 2.29697 12.6 2.49091C12.6 2.67273 12.5679 2.85152 12.5038 3.02727C12.4396 3.20303 12.3375 3.36364 12.1975 3.50909L4.585 11.4182C4.515 11.4909 4.43625 11.5455 4.34875 11.5818C4.26125 11.6182 4.17083 11.6364 4.0775 11.6364H2.1C1.90167 11.6364 1.73542 11.5667 1.60125 11.4273C1.46708 11.2879 1.4 11.1152 1.4 10.9091Z" fill="#35273A"/>
</svg>
